<mxfile host="app.diagrams.net" agent="Mozilla/5.0 (Windows NT 10.0; Win64; x64; rv:144.0) Gecko/20100101 Firefox/144.0" version="28.2.7">
  <diagram name="Page-1" id="EYg3MqegUCzYYS_CXkTB">
    <mxGraphModel dx="1064" dy="565" grid="1" gridSize="10" guides="1" tooltips="1" connect="1" arrows="1" fold="1" page="1" pageScale="1" pageWidth="827" pageHeight="1169" math="0" shadow="0">
      <root>
        <mxCell id="0" />
        <mxCell id="1" parent="0" />
        <mxCell id="wHHLx8FjQf187PXlfKUF-68" value="éditer une fiche de présence" style="shape=umlFrame;whiteSpace=wrap;html=1;pointerEvents=0;recursiveResize=0;container=1;collapsible=0;width=200;strokeColor=#0F8B8D;fontColor=#143642;fillColor=#FAE5C7;height=30;" vertex="1" parent="1">
          <mxGeometry x="50" y="10" width="610" height="450" as="geometry" />
        </mxCell>
        <mxCell id="wHHLx8FjQf187PXlfKUF-67" value="" style="ellipse;fillColor=strokeColor;html=1;strokeColor=#0F8B8D;fontColor=#143642;" vertex="1" parent="wHHLx8FjQf187PXlfKUF-68">
          <mxGeometry x="20" y="104" width="30" height="30" as="geometry" />
        </mxCell>
        <mxCell id="wHHLx8FjQf187PXlfKUF-69" value="arrivé sur la home" style="html=1;align=right;verticalAlign=top;rounded=1;absoluteArcSize=1;arcSize=50;dashed=0;spacingTop=10;spacingRight=30;whiteSpace=wrap;strokeColor=#0F8B8D;fontColor=#143642;fillColor=none;" vertex="1" parent="wHHLx8FjQf187PXlfKUF-68">
          <mxGeometry x="70" y="50" width="510" height="110" as="geometry" />
        </mxCell>
        <mxCell id="wHHLx8FjQf187PXlfKUF-71" value="not_logged" style="html=1;align=center;verticalAlign=top;rounded=1;absoluteArcSize=1;arcSize=10;dashed=1;whiteSpace=wrap;strokeColor=#0F8B8D;fontColor=#143642;fillColor=#FAE5C7;" vertex="1" parent="wHHLx8FjQf187PXlfKUF-68">
          <mxGeometry x="110" y="99" width="80" height="40" as="geometry" />
        </mxCell>
        <mxCell id="wHHLx8FjQf187PXlfKUF-76" value="" style="endArrow=open;html=1;rounded=0;align=center;verticalAlign=bottom;endFill=0;labelBackgroundColor=none;strokeColor=#A8201A;fontColor=#143642;fillColor=#FAE5C7;exitX=1;exitY=0.5;exitDx=0;exitDy=0;entryX=0;entryY=0.5;entryDx=0;entryDy=0;" edge="1" parent="wHHLx8FjQf187PXlfKUF-68" source="wHHLx8FjQf187PXlfKUF-67" target="wHHLx8FjQf187PXlfKUF-71">
          <mxGeometry relative="1" as="geometry">
            <mxPoint x="310" y="294" as="sourcePoint" />
            <mxPoint x="470" y="294" as="targetPoint" />
          </mxGeometry>
        </mxCell>
        <mxCell id="wHHLx8FjQf187PXlfKUF-77" value="" style="resizable=0;html=1;align=center;verticalAlign=top;labelBackgroundColor=none;strokeColor=#0F8B8D;fontColor=#143642;fillColor=#FAE5C7;" connectable="0" vertex="1" parent="wHHLx8FjQf187PXlfKUF-76">
          <mxGeometry relative="1" as="geometry" />
        </mxCell>
        <mxCell id="wHHLx8FjQf187PXlfKUF-78" value="&lt;div&gt;logged&lt;/div&gt;when(auth() == true)" style="html=1;align=center;verticalAlign=top;rounded=1;absoluteArcSize=1;arcSize=10;dashed=1;whiteSpace=wrap;strokeColor=#0F8B8D;fontColor=#143642;fillColor=#FAE5C7;" vertex="1" parent="wHHLx8FjQf187PXlfKUF-68">
          <mxGeometry x="300" y="99" width="120" height="40" as="geometry" />
        </mxCell>
        <mxCell id="wHHLx8FjQf187PXlfKUF-79" value="Auth::auth(usr, pwd)" style="endArrow=open;html=1;rounded=0;align=center;verticalAlign=bottom;endFill=0;labelBackgroundColor=none;strokeColor=#A8201A;fontColor=#143642;fillColor=#FAE5C7;exitX=1;exitY=0.5;exitDx=0;exitDy=0;entryX=0;entryY=0.5;entryDx=0;entryDy=0;" edge="1" parent="wHHLx8FjQf187PXlfKUF-68" source="wHHLx8FjQf187PXlfKUF-71" target="wHHLx8FjQf187PXlfKUF-78">
          <mxGeometry relative="1" as="geometry">
            <mxPoint x="310" y="294" as="sourcePoint" />
            <mxPoint x="470" y="294" as="targetPoint" />
          </mxGeometry>
        </mxCell>
        <mxCell id="wHHLx8FjQf187PXlfKUF-80" value="" style="resizable=0;html=1;align=center;verticalAlign=top;labelBackgroundColor=none;strokeColor=#0F8B8D;fontColor=#143642;fillColor=#FAE5C7;" connectable="0" vertex="1" parent="wHHLx8FjQf187PXlfKUF-79">
          <mxGeometry relative="1" as="geometry" />
        </mxCell>
        <mxCell id="wHHLx8FjQf187PXlfKUF-81" value="signature crée" style="html=1;align=right;verticalAlign=top;rounded=1;absoluteArcSize=1;arcSize=50;dashed=0;spacingTop=10;spacingRight=30;whiteSpace=wrap;strokeColor=#0F8B8D;fontColor=#143642;fillColor=none;" vertex="1" parent="wHHLx8FjQf187PXlfKUF-68">
          <mxGeometry x="70" y="185" width="510" height="110" as="geometry" />
        </mxCell>
        <mxCell id="wHHLx8FjQf187PXlfKUF-82" value="on_presence" style="html=1;align=center;verticalAlign=top;rounded=1;absoluteArcSize=1;arcSize=10;dashed=1;whiteSpace=wrap;strokeColor=#0F8B8D;fontColor=#143642;fillColor=#FAE5C7;" vertex="1" parent="wHHLx8FjQf187PXlfKUF-68">
          <mxGeometry x="100" y="225" width="120" height="30" as="geometry" />
        </mxCell>
        <mxCell id="wHHLx8FjQf187PXlfKUF-83" value="request(GET, /presence)" style="endArrow=open;html=1;rounded=0;align=center;verticalAlign=bottom;endFill=0;labelBackgroundColor=none;strokeColor=#A8201A;fontColor=#143642;fillColor=#FAE5C7;entryX=0;entryY=0.5;entryDx=0;entryDy=0;exitX=0.453;exitY=0.993;exitDx=0;exitDy=0;exitPerimeter=0;" edge="1" parent="wHHLx8FjQf187PXlfKUF-68" source="wHHLx8FjQf187PXlfKUF-78" target="wHHLx8FjQf187PXlfKUF-82">
          <mxGeometry relative="1" as="geometry">
            <mxPoint x="210" y="170" as="sourcePoint" />
            <mxPoint x="370" y="170" as="targetPoint" />
            <Array as="points">
              <mxPoint x="354" y="180" />
              <mxPoint x="30" y="180" />
              <mxPoint x="30" y="240" />
            </Array>
          </mxGeometry>
        </mxCell>
        <mxCell id="wHHLx8FjQf187PXlfKUF-84" value="" style="resizable=0;html=1;align=center;verticalAlign=top;labelBackgroundColor=none;strokeColor=#0F8B8D;fontColor=#143642;fillColor=#FAE5C7;" connectable="0" vertex="1" parent="wHHLx8FjQf187PXlfKUF-83">
          <mxGeometry relative="1" as="geometry" />
        </mxCell>
        <mxCell id="wHHLx8FjQf187PXlfKUF-85" value="signature_created" style="html=1;align=center;verticalAlign=top;rounded=1;absoluteArcSize=1;arcSize=10;dashed=1;whiteSpace=wrap;strokeColor=#0F8B8D;fontColor=#143642;fillColor=#FAE5C7;" vertex="1" parent="wHHLx8FjQf187PXlfKUF-68">
          <mxGeometry x="344" y="220" width="120" height="40" as="geometry" />
        </mxCell>
        <mxCell id="wHHLx8FjQf187PXlfKUF-86" value="Signature::create_sign()" style="endArrow=open;html=1;rounded=0;align=center;verticalAlign=bottom;endFill=0;labelBackgroundColor=none;strokeColor=#A8201A;fontColor=#143642;fillColor=#FAE5C7;exitX=1;exitY=0.5;exitDx=0;exitDy=0;entryX=0;entryY=0.5;entryDx=0;entryDy=0;" edge="1" parent="wHHLx8FjQf187PXlfKUF-68" target="wHHLx8FjQf187PXlfKUF-85">
          <mxGeometry relative="1" as="geometry">
            <mxPoint x="220" y="239.70999999999998" as="sourcePoint" />
            <mxPoint x="330" y="239.70999999999998" as="targetPoint" />
          </mxGeometry>
        </mxCell>
        <mxCell id="wHHLx8FjQf187PXlfKUF-87" value="" style="resizable=0;html=1;align=center;verticalAlign=top;labelBackgroundColor=none;strokeColor=#0F8B8D;fontColor=#143642;fillColor=#FAE5C7;" connectable="0" vertex="1" parent="wHHLx8FjQf187PXlfKUF-86">
          <mxGeometry relative="1" as="geometry" />
        </mxCell>
        <mxCell id="wHHLx8FjQf187PXlfKUF-89" value="redirect()" style="endArrow=open;html=1;rounded=1;align=center;verticalAlign=bottom;endFill=0;labelBackgroundColor=none;strokeColor=#A8201A;fontColor=#143642;fillColor=#FAE5C7;exitX=1;exitY=0.25;exitDx=0;exitDy=0;entryX=1;entryY=1;entryDx=0;entryDy=0;curved=0;" edge="1" parent="wHHLx8FjQf187PXlfKUF-68" source="wHHLx8FjQf187PXlfKUF-78" target="wHHLx8FjQf187PXlfKUF-78">
          <mxGeometry x="-0.2906" y="17" relative="1" as="geometry">
            <mxPoint x="200" y="200" as="sourcePoint" />
            <mxPoint x="360" y="200" as="targetPoint" />
            <Array as="points">
              <mxPoint x="470" y="120" />
            </Array>
            <mxPoint as="offset" />
          </mxGeometry>
        </mxCell>
        <mxCell id="wHHLx8FjQf187PXlfKUF-90" value="" style="resizable=0;html=1;align=center;verticalAlign=top;labelBackgroundColor=none;strokeColor=#0F8B8D;fontColor=#143642;fillColor=#FAE5C7;" connectable="0" vertex="1" parent="wHHLx8FjQf187PXlfKUF-89">
          <mxGeometry relative="1" as="geometry" />
        </mxCell>
        <mxCell id="wHHLx8FjQf187PXlfKUF-92" value="&lt;div&gt;edited&lt;/div&gt;when (length(signed_sessions) &amp;lt; length(sessions)) / after 12h" style="html=1;align=center;verticalAlign=top;rounded=1;absoluteArcSize=1;arcSize=10;dashed=1;whiteSpace=wrap;strokeColor=#0F8B8D;fontColor=#143642;fillColor=#FAE5C7;" vertex="1" parent="wHHLx8FjQf187PXlfKUF-68">
          <mxGeometry x="100" y="350" width="330" height="40" as="geometry" />
        </mxCell>
        <mxCell id="wHHLx8FjQf187PXlfKUF-93" value="" style="endArrow=open;html=1;rounded=0;align=center;verticalAlign=bottom;endFill=0;labelBackgroundColor=none;strokeColor=#A8201A;fontColor=#143642;fillColor=#FAE5C7;exitX=0.5;exitY=1;exitDx=0;exitDy=0;entryX=0;entryY=0.5;entryDx=0;entryDy=0;" edge="1" parent="wHHLx8FjQf187PXlfKUF-68" source="wHHLx8FjQf187PXlfKUF-85" target="wHHLx8FjQf187PXlfKUF-92">
          <mxGeometry relative="1" as="geometry">
            <mxPoint x="180" y="300" as="sourcePoint" />
            <mxPoint x="340" y="300" as="targetPoint" />
            <Array as="points">
              <mxPoint x="404" y="310" />
              <mxPoint x="30" y="310" />
              <mxPoint x="30" y="370" />
            </Array>
          </mxGeometry>
        </mxCell>
        <mxCell id="wHHLx8FjQf187PXlfKUF-94" value="" style="resizable=0;html=1;align=center;verticalAlign=top;labelBackgroundColor=none;strokeColor=#0F8B8D;fontColor=#143642;fillColor=#FAE5C7;" connectable="0" vertex="1" parent="wHHLx8FjQf187PXlfKUF-93">
          <mxGeometry relative="1" as="geometry" />
        </mxCell>
        <mxCell id="wHHLx8FjQf187PXlfKUF-95" value="" style="points=[[0.145,0.145,0],[0.5,0,0],[0.855,0.145,0],[1,0.5,0],[0.855,0.855,0],[0.5,1,0],[0.145,0.855,0],[0,0.5,0]];shape=mxgraph.bpmn.event;html=1;verticalLabelPosition=bottom;labelBackgroundColor=#ffffff;verticalAlign=top;align=center;perimeter=ellipsePerimeter;outlineConnect=0;aspect=fixed;outline=end;symbol=terminate;strokeColor=#0F8B8D;fontColor=#143642;fillColor=#FAE5C7;" vertex="1" parent="wHHLx8FjQf187PXlfKUF-68">
          <mxGeometry x="520" y="352.5" width="35" height="35" as="geometry" />
        </mxCell>
        <mxCell id="wHHLx8FjQf187PXlfKUF-96" value="" style="endArrow=open;html=1;rounded=0;align=center;verticalAlign=bottom;endFill=0;labelBackgroundColor=none;strokeColor=#A8201A;fontColor=#143642;fillColor=#FAE5C7;entryX=0;entryY=0.5;entryDx=0;entryDy=0;entryPerimeter=0;exitX=1;exitY=0.5;exitDx=0;exitDy=0;" edge="1" parent="wHHLx8FjQf187PXlfKUF-68" source="wHHLx8FjQf187PXlfKUF-92" target="wHHLx8FjQf187PXlfKUF-95">
          <mxGeometry relative="1" as="geometry">
            <mxPoint x="300" y="250" as="sourcePoint" />
            <mxPoint x="460" y="250" as="targetPoint" />
          </mxGeometry>
        </mxCell>
        <mxCell id="wHHLx8FjQf187PXlfKUF-97" value="" style="resizable=0;html=1;align=center;verticalAlign=top;labelBackgroundColor=none;strokeColor=#0F8B8D;fontColor=#143642;fillColor=#FAE5C7;" connectable="0" vertex="1" parent="wHHLx8FjQf187PXlfKUF-96">
          <mxGeometry relative="1" as="geometry" />
        </mxCell>
      </root>
    </mxGraphModel>
  </diagram>
</mxfile>
